<?xml version="1.0" encoding="UTF-8" standalone="no"?>
<!-- Created with Inkscape (http://www.inkscape.org/) -->

<svg
   xmlns:dc="http://purl.org/dc/elements/1.1/"
   xmlns:cc="http://creativecommons.org/ns#"
   xmlns:rdf="http://www.w3.org/1999/02/22-rdf-syntax-ns#"
   xmlns:svg="http://www.w3.org/2000/svg"
   xmlns="http://www.w3.org/2000/svg"
   xmlns:sodipodi="http://sodipodi.sourceforge.net/DTD/sodipodi-0.dtd"
   xmlns:inkscape="http://www.inkscape.org/namespaces/inkscape"
   width="200"
   height="200"
   viewBox="0 0 200 200"
   id="svg2"
   version="1.1"
   inkscape:version="0.91 r13725"
   sodipodi:docname="arrow-right.svg">
  <defs
     id="defs4" />
  <sodipodi:namedview
     id="base"
     pagecolor="#ffffff"
     bordercolor="#666666"
     borderopacity="1.0"
     inkscape:pageopacity="0.0"
     inkscape:pageshadow="2"
     inkscape:zoom="1.4"
     inkscape:cx="121.1132"
     inkscape:cy="127.42497"
     inkscape:document-units="px"
     inkscape:current-layer="layer1"
     showgrid="true"
     units="px"
     inkscape:window-width="936"
     inkscape:window-height="1028"
     inkscape:window-x="984"
     inkscape:window-y="24"
     inkscape:window-maximized="0">
    <inkscape:grid
       type="xygrid"
       id="grid4230" />
  </sodipodi:namedview>
  <metadata
     id="metadata7">
    <rdf:RDF>
      <cc:Work
         rdf:about="">
        <dc:format>image/svg+xml</dc:format>
        <dc:type
           rdf:resource="http://purl.org/dc/dcmitype/StillImage" />
        <dc:title />
      </cc:Work>
    </rdf:RDF>
  </metadata>
  <g
     inkscape:label="Layer 1"
     inkscape:groupmode="layer"
     id="layer1"
     transform="translate(0,-852.36216)">
    <path
       style="fill:#000000;clip-rule:nonzero;display:inline;overflow:visible;visibility:visible;opacity:1;isolation:auto;mix-blend-mode:normal;color-interpolation:sRGB;color-interpolation-filters:linearRGB;solid-opacity:1;fill-opacity:1;fill-rule:nonzero;stroke:none;stroke-width:3;stroke-linecap:butt;stroke-linejoin:round;stroke-miterlimit:4;stroke-dasharray:none;stroke-dashoffset:0;stroke-opacity:1;color-rendering:auto;image-rendering:auto;shape-rendering:auto;text-rendering:auto;enable-background:accumulate"
       d="m 110.99218,863.34068 c -11.460816,-0.53759 -19.323919,13.98598 -12.53355,23.26354 11.56242,12.53483 24.07007,24.23615 36.0085,36.43935 0,0 8.53286,7.31859 17.48766,14.27395 0,0 -93.388877,-0.058 -138.492701,0.12184 -11.5186261,0.60304 -17.775214,15.95046 -10.0451362,24.47492 6.2882538,7.79384 16.8447382,4.8781 25.5068962,5.44792 l 124.059751,0.0316 c -5.98361,3.96839 -13.84374,9.63154 -18.67564,14.4543 -11.68019,11.65812 -23.37742,23.3 -34.954149,35.0565 -7.718505,8.5712 -1.290199,23.8472 10.203269,24.409 9.95743,1.0645 15.36023,-8.4617 21.8883,-14.1837 21.81438,-21.9484 43.91035,-43.63859 65.54696,-65.74996 5.49131,-6.87474 2.92602,-17.12514 -3.86015,-22.1003 -24.24241,-24.16945 -48.34369,-48.4873 -72.67465,-72.56364 -2.64163,-2.17273 -6.04543,-3.38525 -9.46536,-3.37525 z"
       id="rect4134"
       inkscape:connector-curvature="0"
       sodipodi:nodetypes="ccccccccscccccccc" />
  </g>
</svg>
